<?xml version="1.0" encoding="utf-8"?>
<!-- Generator: Adobe Illustrator 24.3.0, SVG Export Plug-In . SVG Version: 6.00 Build 0)  -->
<svg version="1.1" id="Layer_1" xmlns="http://www.w3.org/2000/svg" xmlns:xlink="http://www.w3.org/1999/xlink" x="0px" y="0px"
	 viewBox="0 0 32 32" style="enable-background:new 0 0 32 32;" xml:space="preserve">
<style type="text/css">
	.st0{fill:#FBC216;}
</style>
<g>
	<g>
		<path class="st0" d="M21.7,22.8c-3.9,0-6.1-3.6-10.4-4.7c2.6-1.4,5.5-3.2,5.5-6.3c0-2.2-1.9-3.7-4.2-3.7c-2.3,0-3.9,1.4-3.9,4l2,0
			c0-1.8,0.7-3.1,1.9-3.1c1,0,2,1.1,2,2.7c0,2.4-2.5,4.1-6,6.3l0,1.5c5.5,0.5,8,4.7,13.1,4.7c4.9,0,8.2-4.8,8.2-4.8l-1.4-1.2
			C28.5,18.3,25.7,22.8,21.7,22.8z"/>
		<path class="st0" d="M22,16.3c1.6,0,2.3-0.8,2.5-1.3c-0.2,2.8-1.2,4.6-2.9,4.6c-1.8,0-3-2.9-3-2.9L17,18.1c0,0,1.8,2.6,4.6,2.6
			c2.5,0,5.5-2.1,5.3-7.3c-0.1-3.3-2.1-5.3-4.8-5.3c-2.2,0-4.4,1.6-4.3,4.1C18,15,20.1,16.3,22,16.3z M22.2,9c1.6,0,2.2,1.6,2.4,3.3
			c0.1,1.5-0.3,2.3-1.1,2.7c-0.2,0.1-0.5,0.2-0.9,0.3c0,0,0,0,0,0c-0.1,0-0.2,0-0.4,0c-1.5,0-2.1-1.8-2.1-3.1C19.9,10.5,21,9,22.2,9
			z"/>
		<polygon class="st0" points="7.3,18.5 2.6,18.5 2.6,14.5 6.8,14.5 6.8,13.4 2.6,13.4 2.6,9.9 7.3,9.9 7.3,8.7 0.3,8.7 0.3,19.6 
			7.3,19.6 		"/>
		<g>
			<g>
				<polygon class="st0" points="28.6,9.2 29.7,9.2 29.7,12.3 30.6,12.3 30.6,9.2 31.7,9.2 31.7,8.8 28.6,8.8 				"/>
			</g>
			<g>
				<polygon class="st0" points="30.7,14.8 29.5,14.8 29.5,13.4 28.6,13.4 28.6,16.9 29.5,16.9 29.5,15.2 30.7,15.2 30.7,16.9 
					31.7,16.9 31.7,13.4 30.7,13.4 				"/>
			</g>
		</g>
	</g>
</g>
</svg>
